<?xml version="1.0" encoding="UTF-8" standalone="no"?>
<!DOCTYPE svg PUBLIC "-//W3C//DTD SVG 1.1//EN"
 "http://www.w3.org/Graphics/SVG/1.1/DTD/svg11.dtd">
<!-- Generated by graphviz version 2.42.3 (20191010.1750)
 -->
<!-- Title: snakemake_dag Pages: 1 -->
<svg width="497pt" height="548pt"
 viewBox="0.00 0.00 497.00 548.00" xmlns="http://www.w3.org/2000/svg" xmlns:xlink="http://www.w3.org/1999/xlink">
<g id="graph0" class="graph" transform="scale(1 1) rotate(0) translate(4 544)">
<title>snakemake_dag</title>
<polygon fill="white" stroke="transparent" points="-4,4 -4,-544 493,-544 493,4 -4,4"/>
<!-- 0 -->
<g id="node1" class="node">
<title>0</title>
<path fill="none" stroke="#56d0d8" stroke-width="2" d="M231.5,-36C231.5,-36 192.5,-36 192.5,-36 186.5,-36 180.5,-30 180.5,-24 180.5,-24 180.5,-12 180.5,-12 180.5,-6 186.5,0 192.5,0 192.5,0 231.5,0 231.5,0 237.5,0 243.5,-6 243.5,-12 243.5,-12 243.5,-24 243.5,-24 243.5,-30 237.5,-36 231.5,-36"/>
<text text-anchor="middle" x="212" y="-15.5" font-family="sans" font-size="10.00">summary</text>
</g>
<!-- 1 -->
<g id="node2" class="node">
<title>1</title>
<path fill="none" stroke="#d8cb56" stroke-width="2" d="M227,-108C227,-108 197,-108 197,-108 191,-108 185,-102 185,-96 185,-96 185,-84 185,-84 185,-78 191,-72 197,-72 197,-72 227,-72 227,-72 233,-72 239,-78 239,-84 239,-84 239,-96 239,-96 239,-102 233,-108 227,-108"/>
<text text-anchor="middle" x="212" y="-87.5" font-family="sans" font-size="10.00">allc</text>
</g>
<!-- 1&#45;&gt;0 -->
<g id="edge1" class="edge">
<title>1&#45;&gt;0</title>
<path fill="none" stroke="grey" stroke-width="2" d="M212,-71.7C212,-63.98 212,-54.71 212,-46.11"/>
<polygon fill="grey" stroke="grey" stroke-width="2" points="215.5,-46.1 212,-36.1 208.5,-46.1 215.5,-46.1"/>
</g>
<!-- 2 -->
<g id="node3" class="node">
<title>2</title>
<path fill="none" stroke="#56d892" stroke-width="2" d="M199,-540C199,-540 21,-540 21,-540 15,-540 9,-534 9,-528 9,-528 9,-516 9,-516 9,-510 15,-504 21,-504 21,-504 199,-504 199,-504 205,-504 211,-510 211,-516 211,-516 211,-528 211,-528 211,-534 205,-540 199,-540"/>
<text text-anchor="middle" x="110" y="-525" font-family="sans" font-size="10.00">trim_r1</text>
<text text-anchor="middle" x="110" y="-514" font-family="sans" font-size="10.00">cell_id: CEMBA200707_9E_1&#45;1&#45;A18&#45;A1</text>
</g>
<!-- 2&#45;&gt;0 -->
<g id="edge2" class="edge">
<title>2&#45;&gt;0</title>
<path fill="none" stroke="grey" stroke-width="2" d="M117.29,-503.87C127.8,-477.53 146,-425.29 146,-379 146,-379 146,-379 146,-161 146,-116.84 172.57,-71.56 191.99,-44.35"/>
<polygon fill="grey" stroke="grey" stroke-width="2" points="194.9,-46.31 198,-36.18 189.26,-42.16 194.9,-46.31"/>
</g>
<!-- 6 -->
<g id="node7" class="node">
<title>6</title>
<path fill="none" stroke="#b6d856" stroke-width="2" d="M96.5,-468C96.5,-468 49.5,-468 49.5,-468 43.5,-468 37.5,-462 37.5,-456 37.5,-456 37.5,-444 37.5,-444 37.5,-438 43.5,-432 49.5,-432 49.5,-432 96.5,-432 96.5,-432 102.5,-432 108.5,-438 108.5,-444 108.5,-444 108.5,-456 108.5,-456 108.5,-462 102.5,-468 96.5,-468"/>
<text text-anchor="middle" x="73" y="-447.5" font-family="sans" font-size="10.00">bismark_r1</text>
</g>
<!-- 2&#45;&gt;6 -->
<g id="edge11" class="edge">
<title>2&#45;&gt;6</title>
<path fill="none" stroke="grey" stroke-width="2" d="M100.85,-503.7C96.6,-495.64 91.44,-485.89 86.73,-476.98"/>
<polygon fill="grey" stroke="grey" stroke-width="2" points="89.81,-475.31 82.04,-468.1 83.62,-478.58 89.81,-475.31"/>
</g>
<!-- 3 -->
<g id="node4" class="node">
<title>3</title>
<path fill="none" stroke="#d85656" stroke-width="2" d="M477,-540C477,-540 299,-540 299,-540 293,-540 287,-534 287,-528 287,-528 287,-516 287,-516 287,-510 293,-504 299,-504 299,-504 477,-504 477,-504 483,-504 489,-510 489,-516 489,-516 489,-528 489,-528 489,-534 483,-540 477,-540"/>
<text text-anchor="middle" x="388" y="-525" font-family="sans" font-size="10.00">trim_r2</text>
<text text-anchor="middle" x="388" y="-514" font-family="sans" font-size="10.00">cell_id: CEMBA200707_9E_1&#45;1&#45;A18&#45;A1</text>
</g>
<!-- 3&#45;&gt;0 -->
<g id="edge3" class="edge">
<title>3&#45;&gt;0</title>
<path fill="none" stroke="grey" stroke-width="2" d="M395.29,-503.87C405.8,-477.53 424,-425.29 424,-379 424,-379 424,-379 424,-161 424,-79.8 315.32,-42.08 253.59,-27.21"/>
<polygon fill="grey" stroke="grey" stroke-width="2" points="254.27,-23.77 243.74,-24.93 252.69,-30.59 254.27,-23.77"/>
</g>
<!-- 7 -->
<g id="node8" class="node">
<title>7</title>
<path fill="none" stroke="#56d8b9" stroke-width="2" d="M374.5,-468C374.5,-468 327.5,-468 327.5,-468 321.5,-468 315.5,-462 315.5,-456 315.5,-456 315.5,-444 315.5,-444 315.5,-438 321.5,-432 327.5,-432 327.5,-432 374.5,-432 374.5,-432 380.5,-432 386.5,-438 386.5,-444 386.5,-444 386.5,-456 386.5,-456 386.5,-462 380.5,-468 374.5,-468"/>
<text text-anchor="middle" x="351" y="-447.5" font-family="sans" font-size="10.00">bismark_r2</text>
</g>
<!-- 3&#45;&gt;7 -->
<g id="edge12" class="edge">
<title>3&#45;&gt;7</title>
<path fill="none" stroke="grey" stroke-width="2" d="M378.85,-503.7C374.6,-495.64 369.44,-485.89 364.73,-476.98"/>
<polygon fill="grey" stroke="grey" stroke-width="2" points="367.81,-475.31 360.04,-468.1 361.62,-478.58 367.81,-475.31"/>
</g>
<!-- 4 -->
<g id="node5" class="node">
<title>4</title>
<path fill="none" stroke="#d87d56" stroke-width="2" d="M105.5,-252C105.5,-252 40.5,-252 40.5,-252 34.5,-252 28.5,-246 28.5,-240 28.5,-240 28.5,-228 28.5,-228 28.5,-222 34.5,-216 40.5,-216 40.5,-216 105.5,-216 105.5,-216 111.5,-216 117.5,-222 117.5,-228 117.5,-228 117.5,-240 117.5,-240 117.5,-246 111.5,-252 105.5,-252"/>
<text text-anchor="middle" x="73" y="-231.5" font-family="sans" font-size="10.00">dedup_r1_bam</text>
</g>
<!-- 4&#45;&gt;0 -->
<g id="edge4" class="edge">
<title>4&#45;&gt;0</title>
<path fill="none" stroke="grey" stroke-width="2" d="M75.66,-215.76C81.26,-184.28 96.76,-116.62 132,-72 142.5,-58.7 157.29,-47.6 171.3,-39.06"/>
<polygon fill="grey" stroke="grey" stroke-width="2" points="173.45,-41.86 180.34,-33.81 169.93,-35.8 173.45,-41.86"/>
</g>
<!-- 8 -->
<g id="node9" class="node">
<title>8</title>
<path fill="none" stroke="#56d86b" stroke-width="2" d="M237.5,-180C237.5,-180 186.5,-180 186.5,-180 180.5,-180 174.5,-174 174.5,-168 174.5,-168 174.5,-156 174.5,-156 174.5,-150 180.5,-144 186.5,-144 186.5,-144 237.5,-144 237.5,-144 243.5,-144 249.5,-150 249.5,-156 249.5,-156 249.5,-168 249.5,-168 249.5,-174 243.5,-180 237.5,-180"/>
<text text-anchor="middle" x="212" y="-159.5" font-family="sans" font-size="10.00">merge_bam</text>
</g>
<!-- 4&#45;&gt;8 -->
<g id="edge13" class="edge">
<title>4&#45;&gt;8</title>
<path fill="none" stroke="grey" stroke-width="2" d="M107,-215.88C125.6,-206.51 148.83,-194.81 168.71,-184.8"/>
<polygon fill="grey" stroke="grey" stroke-width="2" points="170.51,-187.81 177.87,-180.19 167.36,-181.56 170.51,-187.81"/>
</g>
<!-- 5 -->
<g id="node6" class="node">
<title>5</title>
<path fill="none" stroke="#567bd8" stroke-width="2" d="M383.5,-252C383.5,-252 318.5,-252 318.5,-252 312.5,-252 306.5,-246 306.5,-240 306.5,-240 306.5,-228 306.5,-228 306.5,-222 312.5,-216 318.5,-216 318.5,-216 383.5,-216 383.5,-216 389.5,-216 395.5,-222 395.5,-228 395.5,-228 395.5,-240 395.5,-240 395.5,-246 389.5,-252 383.5,-252"/>
<text text-anchor="middle" x="351" y="-231.5" font-family="sans" font-size="10.00">dedup_r2_bam</text>
</g>
<!-- 5&#45;&gt;0 -->
<g id="edge5" class="edge">
<title>5&#45;&gt;0</title>
<path fill="none" stroke="grey" stroke-width="2" d="M348.34,-215.76C342.74,-184.28 327.24,-116.62 292,-72 281.5,-58.7 266.71,-47.6 252.7,-39.06"/>
<polygon fill="grey" stroke="grey" stroke-width="2" points="254.07,-35.8 243.66,-33.81 250.55,-41.86 254.07,-35.8"/>
</g>
<!-- 5&#45;&gt;8 -->
<g id="edge14" class="edge">
<title>5&#45;&gt;8</title>
<path fill="none" stroke="grey" stroke-width="2" d="M317,-215.88C298.4,-206.51 275.17,-194.81 255.29,-184.8"/>
<polygon fill="grey" stroke="grey" stroke-width="2" points="256.64,-181.56 246.13,-180.19 253.49,-187.81 256.64,-181.56"/>
</g>
<!-- 6&#45;&gt;0 -->
<g id="edge6" class="edge">
<title>6&#45;&gt;0</title>
<path fill="none" stroke="grey" stroke-width="2" d="M52.63,-431.98C42.36,-422.39 30.52,-409.62 23,-396 3.25,-360.24 0,-347.86 0,-307 0,-307 0,-307 0,-161 0,-79.8 108.68,-42.08 170.41,-27.21"/>
<polygon fill="grey" stroke="grey" stroke-width="2" points="171.31,-30.59 180.26,-24.93 169.73,-23.77 171.31,-30.59"/>
</g>
<!-- 11 -->
<g id="node12" class="node">
<title>11</title>
<path fill="none" stroke="#d8a456" stroke-width="2" d="M101.5,-396C101.5,-396 44.5,-396 44.5,-396 38.5,-396 32.5,-390 32.5,-384 32.5,-384 32.5,-372 32.5,-372 32.5,-366 38.5,-360 44.5,-360 44.5,-360 101.5,-360 101.5,-360 107.5,-360 113.5,-366 113.5,-372 113.5,-372 113.5,-384 113.5,-384 113.5,-390 107.5,-396 101.5,-396"/>
<text text-anchor="middle" x="73" y="-375.5" font-family="sans" font-size="10.00">filter_r1_bam</text>
</g>
<!-- 6&#45;&gt;11 -->
<g id="edge17" class="edge">
<title>6&#45;&gt;11</title>
<path fill="none" stroke="grey" stroke-width="2" d="M73,-431.7C73,-423.98 73,-414.71 73,-406.11"/>
<polygon fill="grey" stroke="grey" stroke-width="2" points="76.5,-406.1 73,-396.1 69.5,-406.1 76.5,-406.1"/>
</g>
<!-- 7&#45;&gt;0 -->
<g id="edge7" class="edge">
<title>7&#45;&gt;0</title>
<path fill="none" stroke="grey" stroke-width="2" d="M330.63,-431.98C320.36,-422.39 308.52,-409.62 301,-396 281.25,-360.24 278,-347.86 278,-307 278,-307 278,-307 278,-161 278,-116.84 251.43,-71.56 232.01,-44.35"/>
<polygon fill="grey" stroke="grey" stroke-width="2" points="234.74,-42.16 226,-36.18 229.1,-46.31 234.74,-42.16"/>
</g>
<!-- 12 -->
<g id="node13" class="node">
<title>12</title>
<path fill="none" stroke="#68d856" stroke-width="2" d="M379.5,-396C379.5,-396 322.5,-396 322.5,-396 316.5,-396 310.5,-390 310.5,-384 310.5,-384 310.5,-372 310.5,-372 310.5,-366 316.5,-360 322.5,-360 322.5,-360 379.5,-360 379.5,-360 385.5,-360 391.5,-366 391.5,-372 391.5,-372 391.5,-384 391.5,-384 391.5,-390 385.5,-396 379.5,-396"/>
<text text-anchor="middle" x="351" y="-375.5" font-family="sans" font-size="10.00">filter_r2_bam</text>
</g>
<!-- 7&#45;&gt;12 -->
<g id="edge18" class="edge">
<title>7&#45;&gt;12</title>
<path fill="none" stroke="grey" stroke-width="2" d="M351,-431.7C351,-423.98 351,-414.71 351,-406.11"/>
<polygon fill="grey" stroke="grey" stroke-width="2" points="354.5,-406.1 351,-396.1 347.5,-406.1 354.5,-406.1"/>
</g>
<!-- 8&#45;&gt;1 -->
<g id="edge8" class="edge">
<title>8&#45;&gt;1</title>
<path fill="none" stroke="grey" stroke-width="2" d="M212,-143.7C212,-135.98 212,-126.71 212,-118.11"/>
<polygon fill="grey" stroke="grey" stroke-width="2" points="215.5,-118.1 212,-108.1 208.5,-118.1 215.5,-118.1"/>
</g>
<!-- 9 -->
<g id="node10" class="node">
<title>9</title>
<path fill="none" stroke="#56a9d8" stroke-width="2" d="M99.5,-324C99.5,-324 46.5,-324 46.5,-324 40.5,-324 34.5,-318 34.5,-312 34.5,-312 34.5,-300 34.5,-300 34.5,-294 40.5,-288 46.5,-288 46.5,-288 99.5,-288 99.5,-288 105.5,-288 111.5,-294 111.5,-300 111.5,-300 111.5,-312 111.5,-312 111.5,-318 105.5,-324 99.5,-324"/>
<text text-anchor="middle" x="73" y="-303.5" font-family="sans" font-size="10.00">sort_r1_bam</text>
</g>
<!-- 9&#45;&gt;4 -->
<g id="edge9" class="edge">
<title>9&#45;&gt;4</title>
<path fill="none" stroke="grey" stroke-width="2" d="M73,-287.7C73,-279.98 73,-270.71 73,-262.11"/>
<polygon fill="grey" stroke="grey" stroke-width="2" points="76.5,-262.1 73,-252.1 69.5,-262.1 76.5,-262.1"/>
</g>
<!-- 10 -->
<g id="node11" class="node">
<title>10</title>
<path fill="none" stroke="#8fd856" stroke-width="2" d="M377.5,-324C377.5,-324 324.5,-324 324.5,-324 318.5,-324 312.5,-318 312.5,-312 312.5,-312 312.5,-300 312.5,-300 312.5,-294 318.5,-288 324.5,-288 324.5,-288 377.5,-288 377.5,-288 383.5,-288 389.5,-294 389.5,-300 389.5,-300 389.5,-312 389.5,-312 389.5,-318 383.5,-324 377.5,-324"/>
<text text-anchor="middle" x="351" y="-303.5" font-family="sans" font-size="10.00">sort_r2_bam</text>
</g>
<!-- 10&#45;&gt;5 -->
<g id="edge10" class="edge">
<title>10&#45;&gt;5</title>
<path fill="none" stroke="grey" stroke-width="2" d="M351,-287.7C351,-279.98 351,-270.71 351,-262.11"/>
<polygon fill="grey" stroke="grey" stroke-width="2" points="354.5,-262.1 351,-252.1 347.5,-262.1 354.5,-262.1"/>
</g>
<!-- 11&#45;&gt;9 -->
<g id="edge15" class="edge">
<title>11&#45;&gt;9</title>
<path fill="none" stroke="grey" stroke-width="2" d="M73,-359.7C73,-351.98 73,-342.71 73,-334.11"/>
<polygon fill="grey" stroke="grey" stroke-width="2" points="76.5,-334.1 73,-324.1 69.5,-334.1 76.5,-334.1"/>
</g>
<!-- 12&#45;&gt;10 -->
<g id="edge16" class="edge">
<title>12&#45;&gt;10</title>
<path fill="none" stroke="grey" stroke-width="2" d="M351,-359.7C351,-351.98 351,-342.71 351,-334.11"/>
<polygon fill="grey" stroke="grey" stroke-width="2" points="354.5,-334.1 351,-324.1 347.5,-334.1 354.5,-334.1"/>
</g>
</g>
</svg>
