<?xml version="1.0" encoding="UTF-8" standalone="no"?>
<!DOCTYPE svg PUBLIC "-//W3C//DTD SVG 1.1//EN"
 "http://www.w3.org/Graphics/SVG/1.1/DTD/svg11.dtd">
<!-- Generated by graphviz version 2.42.3 (20191010.1750)
 -->
<!-- Title: snakemake_dag Pages: 1 -->
<svg width="659pt" height="764pt"
 viewBox="0.00 0.00 659.00 764.00" xmlns="http://www.w3.org/2000/svg" xmlns:xlink="http://www.w3.org/1999/xlink">
<g id="graph0" class="graph" transform="scale(1 1) rotate(0) translate(4 760)">
<title>snakemake_dag</title>
<polygon fill="white" stroke="transparent" points="-4,4 -4,-760 655,-760 655,4 -4,4"/>
<!-- 0 -->
<g id="node1" class="node">
<title>0</title>
<path fill="none" stroke="#70d856" stroke-width="2" d="M363,-36C363,-36 324,-36 324,-36 318,-36 312,-30 312,-24 312,-24 312,-12 312,-12 312,-6 318,0 324,0 324,0 363,0 363,0 369,0 375,-6 375,-12 375,-12 375,-24 375,-24 375,-30 369,-36 363,-36"/>
<text text-anchor="middle" x="343.5" y="-15.5" font-family="sans" font-size="10.00">summary</text>
</g>
<!-- 1 -->
<g id="node2" class="node">
<title>1</title>
<path fill="none" stroke="#56d86b" stroke-width="2" d="M406.5,-108C406.5,-108 376.5,-108 376.5,-108 370.5,-108 364.5,-102 364.5,-96 364.5,-96 364.5,-84 364.5,-84 364.5,-78 370.5,-72 376.5,-72 376.5,-72 406.5,-72 406.5,-72 412.5,-72 418.5,-78 418.5,-84 418.5,-84 418.5,-96 418.5,-96 418.5,-102 412.5,-108 406.5,-108"/>
<text text-anchor="middle" x="391.5" y="-87.5" font-family="sans" font-size="10.00">allc</text>
</g>
<!-- 1&#45;&gt;0 -->
<g id="edge1" class="edge">
<title>1&#45;&gt;0</title>
<path fill="none" stroke="grey" stroke-width="2" d="M379.63,-71.7C374,-63.47 367.15,-53.48 360.93,-44.42"/>
<polygon fill="grey" stroke="grey" stroke-width="2" points="363.77,-42.37 355.23,-36.1 358,-46.33 363.77,-42.37"/>
</g>
<!-- 2 -->
<g id="node3" class="node">
<title>2</title>
<path fill="none" stroke="#d8b456" stroke-width="2" d="M211,-756C211,-756 12,-756 12,-756 6,-756 0,-750 0,-744 0,-744 0,-732 0,-732 0,-726 6,-720 12,-720 12,-720 211,-720 211,-720 217,-720 223,-726 223,-732 223,-732 223,-744 223,-744 223,-750 217,-756 211,-756"/>
<text text-anchor="middle" x="111.5" y="-741" font-family="sans" font-size="10.00">trim_r1</text>
<text text-anchor="middle" x="111.5" y="-730" font-family="sans" font-size="10.00">cell_id: CEMBA3C_18A3C_R2_P10&#45;1&#45;O5&#45;A2</text>
</g>
<!-- 2&#45;&gt;0 -->
<g id="edge2" class="edge">
<title>2&#45;&gt;0</title>
<path fill="none" stroke="grey" stroke-width="2" d="M105.02,-719.79C95.67,-693.36 79.5,-640.99 79.5,-595 79.5,-595 79.5,-595 79.5,-161 79.5,-114.73 96.29,-99.49 133.5,-72 183.44,-35.1 256.33,-23.75 301.79,-20.35"/>
<polygon fill="grey" stroke="grey" stroke-width="2" points="302.14,-23.83 311.89,-19.69 301.68,-16.85 302.14,-23.83"/>
</g>
<!-- 15 -->
<g id="node16" class="node">
<title>15</title>
<path fill="none" stroke="#d85656" stroke-width="2" d="M167,-684C167,-684 120,-684 120,-684 114,-684 108,-678 108,-672 108,-672 108,-660 108,-660 108,-654 114,-648 120,-648 120,-648 167,-648 167,-648 173,-648 179,-654 179,-660 179,-660 179,-672 179,-672 179,-678 173,-684 167,-684"/>
<text text-anchor="middle" x="143.5" y="-663.5" font-family="sans" font-size="10.00">bismark_r1</text>
</g>
<!-- 2&#45;&gt;15 -->
<g id="edge24" class="edge">
<title>2&#45;&gt;15</title>
<path fill="none" stroke="grey" stroke-width="2" d="M119.41,-719.7C123.05,-711.73 127.45,-702.1 131.49,-693.26"/>
<polygon fill="grey" stroke="grey" stroke-width="2" points="134.71,-694.65 135.68,-684.1 128.34,-691.74 134.71,-694.65"/>
</g>
<!-- 3 -->
<g id="node4" class="node">
<title>3</title>
<path fill="none" stroke="#d89c56" stroke-width="2" d="M639,-756C639,-756 440,-756 440,-756 434,-756 428,-750 428,-744 428,-744 428,-732 428,-732 428,-726 434,-720 440,-720 440,-720 639,-720 639,-720 645,-720 651,-726 651,-732 651,-732 651,-744 651,-744 651,-750 645,-756 639,-756"/>
<text text-anchor="middle" x="539.5" y="-741" font-family="sans" font-size="10.00">trim_r2</text>
<text text-anchor="middle" x="539.5" y="-730" font-family="sans" font-size="10.00">cell_id: CEMBA3C_18A3C_R2_P10&#45;1&#45;O5&#45;A2</text>
</g>
<!-- 3&#45;&gt;0 -->
<g id="edge3" class="edge">
<title>3&#45;&gt;0</title>
<path fill="none" stroke="grey" stroke-width="2" d="M547.59,-719.95C559.28,-693.72 579.5,-641.61 579.5,-595 579.5,-595 579.5,-595 579.5,-161 579.5,-71.4 453.06,-36.89 385.28,-24.83"/>
<polygon fill="grey" stroke="grey" stroke-width="2" points="385.77,-21.36 375.33,-23.14 384.6,-28.26 385.77,-21.36"/>
</g>
<!-- 17 -->
<g id="node18" class="node">
<title>17</title>
<path fill="none" stroke="#56c9d8" stroke-width="2" d="M523,-684C523,-684 476,-684 476,-684 470,-684 464,-678 464,-672 464,-672 464,-660 464,-660 464,-654 470,-648 476,-648 476,-648 523,-648 523,-648 529,-648 535,-654 535,-660 535,-660 535,-672 535,-672 535,-678 529,-684 523,-684"/>
<text text-anchor="middle" x="499.5" y="-663.5" font-family="sans" font-size="10.00">bismark_r2</text>
</g>
<!-- 3&#45;&gt;17 -->
<g id="edge26" class="edge">
<title>3&#45;&gt;17</title>
<path fill="none" stroke="grey" stroke-width="2" d="M529.61,-719.7C525.01,-711.64 519.44,-701.89 514.35,-692.98"/>
<polygon fill="grey" stroke="grey" stroke-width="2" points="517.27,-691.05 509.27,-684.1 511.2,-694.52 517.27,-691.05"/>
</g>
<!-- 4 -->
<g id="node5" class="node">
<title>4</title>
<path fill="none" stroke="#b6d856" stroke-width="2" d="M223,-252C223,-252 158,-252 158,-252 152,-252 146,-246 146,-240 146,-240 146,-228 146,-228 146,-222 152,-216 158,-216 158,-216 223,-216 223,-216 229,-216 235,-222 235,-228 235,-228 235,-240 235,-240 235,-246 229,-252 223,-252"/>
<text text-anchor="middle" x="190.5" y="-231.5" font-family="sans" font-size="10.00">dedup_r1_bam</text>
</g>
<!-- 4&#45;&gt;0 -->
<g id="edge4" class="edge">
<title>4&#45;&gt;0</title>
<path fill="none" stroke="grey" stroke-width="2" d="M189.79,-215.76C189.4,-183.68 193.04,-114.23 228.5,-72 247.2,-49.73 277.28,-36.32 301.98,-28.57"/>
<polygon fill="grey" stroke="grey" stroke-width="2" points="303.23,-31.85 311.84,-25.68 301.26,-25.13 303.23,-31.85"/>
</g>
<!-- 9 -->
<g id="node10" class="node">
<title>9</title>
<path fill="none" stroke="#9fd856" stroke-width="2" d="M442,-180C442,-180 371,-180 371,-180 365,-180 359,-174 359,-168 359,-168 359,-156 359,-156 359,-150 365,-144 371,-144 371,-144 442,-144 442,-144 448,-144 454,-150 454,-156 454,-156 454,-168 454,-168 454,-174 448,-180 442,-180"/>
<text text-anchor="middle" x="406.5" y="-159.5" font-family="sans" font-size="10.00">merge_mc_bam</text>
</g>
<!-- 4&#45;&gt;9 -->
<g id="edge15" class="edge">
<title>4&#45;&gt;9</title>
<path fill="none" stroke="grey" stroke-width="2" d="M235.26,-218.5C268.24,-207.81 313.37,-193.18 349.02,-181.63"/>
<polygon fill="grey" stroke="grey" stroke-width="2" points="350.37,-184.87 358.81,-178.46 348.21,-178.21 350.37,-184.87"/>
</g>
<!-- 5 -->
<g id="node6" class="node">
<title>5</title>
<path fill="none" stroke="#56b1d8" stroke-width="2" d="M501,-252C501,-252 436,-252 436,-252 430,-252 424,-246 424,-240 424,-240 424,-228 424,-228 424,-222 430,-216 436,-216 436,-216 501,-216 501,-216 507,-216 513,-222 513,-228 513,-228 513,-240 513,-240 513,-246 507,-252 501,-252"/>
<text text-anchor="middle" x="468.5" y="-231.5" font-family="sans" font-size="10.00">dedup_r2_bam</text>
</g>
<!-- 5&#45;&gt;0 -->
<g id="edge5" class="edge">
<title>5&#45;&gt;0</title>
<path fill="none" stroke="grey" stroke-width="2" d="M469.57,-215.95C470.24,-197.79 469.98,-168.38 463.5,-144 454.31,-109.42 451.51,-98.52 427.5,-72 415.42,-58.66 399.24,-47.39 384.3,-38.72"/>
<polygon fill="grey" stroke="grey" stroke-width="2" points="385.64,-35.46 375.2,-33.66 382.24,-41.58 385.64,-35.46"/>
</g>
<!-- 5&#45;&gt;9 -->
<g id="edge16" class="edge">
<title>5&#45;&gt;9</title>
<path fill="none" stroke="grey" stroke-width="2" d="M453.17,-215.7C445.74,-207.3 436.68,-197.07 428.52,-187.86"/>
<polygon fill="grey" stroke="grey" stroke-width="2" points="430.9,-185.27 421.65,-180.1 425.66,-189.91 430.9,-185.27"/>
</g>
<!-- 6 -->
<g id="node7" class="node">
<title>6</title>
<path fill="none" stroke="#d86e56" stroke-width="2" d="M206,-396C206,-396 149,-396 149,-396 143,-396 137,-390 137,-384 137,-384 137,-372 137,-372 137,-366 143,-360 149,-360 149,-360 206,-360 206,-360 212,-360 218,-366 218,-372 218,-372 218,-384 218,-384 218,-390 212,-396 206,-396"/>
<text text-anchor="middle" x="177.5" y="-375.5" font-family="sans" font-size="10.00">filter_r1_bam</text>
</g>
<!-- 6&#45;&gt;0 -->
<g id="edge6" class="edge">
<title>6&#45;&gt;0</title>
<path fill="none" stroke="grey" stroke-width="2" d="M164.06,-359.65C156.84,-349.67 148.28,-336.64 142.5,-324 125.42,-286.63 117.5,-276.09 117.5,-235 117.5,-235 117.5,-235 117.5,-161 117.5,-75.01 236.26,-39.07 301.6,-25.8"/>
<polygon fill="grey" stroke="grey" stroke-width="2" points="302.45,-29.2 311.6,-23.87 301.12,-22.33 302.45,-29.2"/>
</g>
<!-- 10 -->
<g id="node11" class="node">
<title>10</title>
<path fill="none" stroke="#569ad8" stroke-width="2" d="M217,-324C217,-324 164,-324 164,-324 158,-324 152,-318 152,-312 152,-312 152,-300 152,-300 152,-294 158,-288 164,-288 164,-288 217,-288 217,-288 223,-288 229,-294 229,-300 229,-300 229,-312 229,-312 229,-318 223,-324 217,-324"/>
<text text-anchor="middle" x="190.5" y="-303.5" font-family="sans" font-size="10.00">sort_r1_bam</text>
</g>
<!-- 6&#45;&gt;10 -->
<g id="edge17" class="edge">
<title>6&#45;&gt;10</title>
<path fill="none" stroke="grey" stroke-width="2" d="M180.71,-359.7C182.15,-351.98 183.87,-342.71 185.46,-334.11"/>
<polygon fill="grey" stroke="grey" stroke-width="2" points="188.94,-334.58 187.32,-324.1 182.06,-333.3 188.94,-334.58"/>
</g>
<!-- 7 -->
<g id="node8" class="node">
<title>7</title>
<path fill="none" stroke="#59d856" stroke-width="2" d="M510,-396C510,-396 453,-396 453,-396 447,-396 441,-390 441,-384 441,-384 441,-372 441,-372 441,-366 447,-360 453,-360 453,-360 510,-360 510,-360 516,-360 522,-366 522,-372 522,-372 522,-384 522,-384 522,-390 516,-396 510,-396"/>
<text text-anchor="middle" x="481.5" y="-375.5" font-family="sans" font-size="10.00">filter_r2_bam</text>
</g>
<!-- 7&#45;&gt;0 -->
<g id="edge7" class="edge">
<title>7&#45;&gt;0</title>
<path fill="none" stroke="grey" stroke-width="2" d="M494.94,-359.65C502.16,-349.67 510.72,-336.64 516.5,-324 533.58,-286.63 541.5,-276.09 541.5,-235 541.5,-235 541.5,-235 541.5,-161 541.5,-84.78 443.41,-45.51 385.31,-28.93"/>
<polygon fill="grey" stroke="grey" stroke-width="2" points="385.88,-25.46 375.31,-26.19 384.03,-32.21 385.88,-25.46"/>
</g>
<!-- 11 -->
<g id="node12" class="node">
<title>11</title>
<path fill="none" stroke="#ced856" stroke-width="2" d="M495,-324C495,-324 442,-324 442,-324 436,-324 430,-318 430,-312 430,-312 430,-300 430,-300 430,-294 436,-288 442,-288 442,-288 495,-288 495,-288 501,-288 507,-294 507,-300 507,-300 507,-312 507,-312 507,-318 501,-324 495,-324"/>
<text text-anchor="middle" x="468.5" y="-303.5" font-family="sans" font-size="10.00">sort_r2_bam</text>
</g>
<!-- 7&#45;&gt;11 -->
<g id="edge18" class="edge">
<title>7&#45;&gt;11</title>
<path fill="none" stroke="grey" stroke-width="2" d="M478.29,-359.7C476.85,-351.98 475.13,-342.71 473.54,-334.11"/>
<polygon fill="grey" stroke="grey" stroke-width="2" points="476.94,-333.3 471.68,-324.1 470.06,-334.58 476.94,-333.3"/>
</g>
<!-- 8 -->
<g id="node9" class="node">
<title>8</title>
<path fill="none" stroke="#56d8b1" stroke-width="2" d="M326,-108C326,-108 249,-108 249,-108 243,-108 237,-102 237,-96 237,-96 237,-84 237,-84 237,-78 243,-72 249,-72 249,-72 326,-72 326,-72 332,-72 338,-78 338,-84 338,-84 338,-96 338,-96 338,-102 332,-108 326,-108"/>
<text text-anchor="middle" x="287.5" y="-87.5" font-family="sans" font-size="10.00">generate_contact</text>
</g>
<!-- 8&#45;&gt;0 -->
<g id="edge8" class="edge">
<title>8&#45;&gt;0</title>
<path fill="none" stroke="grey" stroke-width="2" d="M301.34,-71.7C307.99,-63.39 316.08,-53.28 323.39,-44.14"/>
<polygon fill="grey" stroke="grey" stroke-width="2" points="326.3,-46.1 329.82,-36.1 320.84,-41.73 326.3,-46.1"/>
</g>
<!-- 9&#45;&gt;1 -->
<g id="edge9" class="edge">
<title>9&#45;&gt;1</title>
<path fill="none" stroke="grey" stroke-width="2" d="M402.79,-143.7C401.14,-135.98 399.15,-126.71 397.31,-118.11"/>
<polygon fill="grey" stroke="grey" stroke-width="2" points="400.68,-117.15 395.17,-108.1 393.84,-118.62 400.68,-117.15"/>
</g>
<!-- 10&#45;&gt;4 -->
<g id="edge10" class="edge">
<title>10&#45;&gt;4</title>
<path fill="none" stroke="grey" stroke-width="2" d="M190.5,-287.7C190.5,-279.98 190.5,-270.71 190.5,-262.11"/>
<polygon fill="grey" stroke="grey" stroke-width="2" points="194,-262.1 190.5,-252.1 187,-262.1 194,-262.1"/>
</g>
<!-- 19 -->
<g id="node20" class="node">
<title>19</title>
<path fill="none" stroke="#88d856" stroke-width="2" d="M393.5,-252C393.5,-252 265.5,-252 265.5,-252 259.5,-252 253.5,-246 253.5,-240 253.5,-240 253.5,-228 253.5,-228 253.5,-222 259.5,-216 265.5,-216 265.5,-216 393.5,-216 393.5,-216 399.5,-216 405.5,-222 405.5,-228 405.5,-228 405.5,-240 405.5,-240 405.5,-246 399.5,-252 393.5,-252"/>
<text text-anchor="middle" x="329.5" y="-231.5" font-family="sans" font-size="10.00">merge_3c_bam_for_contact</text>
</g>
<!-- 10&#45;&gt;19 -->
<g id="edge28" class="edge">
<title>10&#45;&gt;19</title>
<path fill="none" stroke="grey" stroke-width="2" d="M224.5,-287.88C243.1,-278.51 266.33,-266.81 286.21,-256.8"/>
<polygon fill="grey" stroke="grey" stroke-width="2" points="288.01,-259.81 295.37,-252.19 284.86,-253.56 288.01,-259.81"/>
</g>
<!-- 11&#45;&gt;5 -->
<g id="edge11" class="edge">
<title>11&#45;&gt;5</title>
<path fill="none" stroke="grey" stroke-width="2" d="M468.5,-287.7C468.5,-279.98 468.5,-270.71 468.5,-262.11"/>
<polygon fill="grey" stroke="grey" stroke-width="2" points="472,-262.1 468.5,-252.1 465,-262.1 472,-262.1"/>
</g>
<!-- 11&#45;&gt;19 -->
<g id="edge29" class="edge">
<title>11&#45;&gt;19</title>
<path fill="none" stroke="grey" stroke-width="2" d="M434.5,-287.88C415.9,-278.51 392.67,-266.81 372.79,-256.8"/>
<polygon fill="grey" stroke="grey" stroke-width="2" points="374.14,-253.56 363.63,-252.19 370.99,-259.81 374.14,-253.56"/>
</g>
<!-- 12 -->
<g id="node13" class="node">
<title>12</title>
<path fill="none" stroke="#5682d8" stroke-width="2" d="M222,-468C222,-468 133,-468 133,-468 127,-468 121,-462 121,-456 121,-456 121,-444 121,-444 121,-438 127,-432 133,-432 133,-432 222,-432 222,-432 228,-432 234,-438 234,-444 234,-444 234,-456 234,-456 234,-462 228,-468 222,-468"/>
<text text-anchor="middle" x="177.5" y="-447.5" font-family="sans" font-size="10.00">merge_r1_raw_bam</text>
</g>
<!-- 12&#45;&gt;6 -->
<g id="edge12" class="edge">
<title>12&#45;&gt;6</title>
<path fill="none" stroke="grey" stroke-width="2" d="M177.5,-431.7C177.5,-423.98 177.5,-414.71 177.5,-406.11"/>
<polygon fill="grey" stroke="grey" stroke-width="2" points="181,-406.1 177.5,-396.1 174,-406.1 181,-406.1"/>
</g>
<!-- 13 -->
<g id="node14" class="node">
<title>13</title>
<path fill="none" stroke="#56d8c9" stroke-width="2" d="M526,-468C526,-468 437,-468 437,-468 431,-468 425,-462 425,-456 425,-456 425,-444 425,-444 425,-438 431,-432 437,-432 437,-432 526,-432 526,-432 532,-432 538,-438 538,-444 538,-444 538,-456 538,-456 538,-462 532,-468 526,-468"/>
<text text-anchor="middle" x="481.5" y="-447.5" font-family="sans" font-size="10.00">merge_r2_raw_bam</text>
</g>
<!-- 13&#45;&gt;7 -->
<g id="edge13" class="edge">
<title>13&#45;&gt;7</title>
<path fill="none" stroke="grey" stroke-width="2" d="M481.5,-431.7C481.5,-423.98 481.5,-414.71 481.5,-406.11"/>
<polygon fill="grey" stroke="grey" stroke-width="2" points="485,-406.1 481.5,-396.1 478,-406.1 485,-406.1"/>
</g>
<!-- 14 -->
<g id="node15" class="node">
<title>14</title>
<path fill="none" stroke="#566bd8" stroke-width="2" d="M328.5,-180C328.5,-180 230.5,-180 230.5,-180 224.5,-180 218.5,-174 218.5,-168 218.5,-168 218.5,-156 218.5,-156 218.5,-150 224.5,-144 230.5,-144 230.5,-144 328.5,-144 328.5,-144 334.5,-144 340.5,-150 340.5,-156 340.5,-156 340.5,-168 340.5,-168 340.5,-174 334.5,-180 328.5,-180"/>
<text text-anchor="middle" x="279.5" y="-159.5" font-family="sans" font-size="10.00">sort_bam_for_contact</text>
</g>
<!-- 14&#45;&gt;8 -->
<g id="edge14" class="edge">
<title>14&#45;&gt;8</title>
<path fill="none" stroke="grey" stroke-width="2" d="M281.48,-143.7C282.36,-135.98 283.42,-126.71 284.4,-118.11"/>
<polygon fill="grey" stroke="grey" stroke-width="2" points="287.89,-118.44 285.55,-108.1 280.93,-117.64 287.89,-118.44"/>
</g>
<!-- 15&#45;&gt;12 -->
<g id="edge19" class="edge">
<title>15&#45;&gt;12</title>
<path fill="none" stroke="grey" stroke-width="2" d="M142.11,-647.74C140.19,-617.89 138.34,-554.94 151.5,-504 153.82,-495.01 157.75,-485.75 161.87,-477.54"/>
<polygon fill="grey" stroke="grey" stroke-width="2" points="165.1,-478.92 166.69,-468.45 158.91,-475.64 165.1,-478.92"/>
</g>
<!-- 20 -->
<g id="node21" class="node">
<title>20</title>
<path fill="none" stroke="#d88556" stroke-width="2" d="M250.5,-612C250.5,-612 170.5,-612 170.5,-612 164.5,-612 158.5,-606 158.5,-600 158.5,-600 158.5,-588 158.5,-588 158.5,-582 164.5,-576 170.5,-576 170.5,-576 250.5,-576 250.5,-576 256.5,-576 262.5,-582 262.5,-588 262.5,-588 262.5,-600 262.5,-600 262.5,-606 256.5,-612 250.5,-612"/>
<text text-anchor="middle" x="210.5" y="-591.5" font-family="sans" font-size="10.00">split_um_fastq_r1</text>
</g>
<!-- 15&#45;&gt;20 -->
<g id="edge30" class="edge">
<title>15&#45;&gt;20</title>
<path fill="none" stroke="grey" stroke-width="2" d="M160.06,-647.7C168.18,-639.22 178.09,-628.86 186.97,-619.58"/>
<polygon fill="grey" stroke="grey" stroke-width="2" points="189.74,-621.75 194.13,-612.1 184.69,-616.91 189.74,-621.75"/>
</g>
<!-- 16 -->
<g id="node17" class="node">
<title>16</title>
<path fill="none" stroke="#56d882" stroke-width="2" d="M246.5,-540C246.5,-540 172.5,-540 172.5,-540 166.5,-540 160.5,-534 160.5,-528 160.5,-528 160.5,-516 160.5,-516 160.5,-510 166.5,-504 172.5,-504 172.5,-504 246.5,-504 246.5,-504 252.5,-504 258.5,-510 258.5,-516 258.5,-516 258.5,-528 258.5,-528 258.5,-534 252.5,-540 246.5,-540"/>
<text text-anchor="middle" x="209.5" y="-519.5" font-family="sans" font-size="10.00">bismark_split_r1</text>
</g>
<!-- 16&#45;&gt;12 -->
<g id="edge20" class="edge">
<title>16&#45;&gt;12</title>
<path fill="none" stroke="grey" stroke-width="2" d="M201.59,-503.7C197.95,-495.73 193.55,-486.1 189.51,-477.26"/>
<polygon fill="grey" stroke="grey" stroke-width="2" points="192.66,-475.74 185.32,-468.1 186.29,-478.65 192.66,-475.74"/>
</g>
<!-- 17&#45;&gt;13 -->
<g id="edge21" class="edge">
<title>17&#45;&gt;13</title>
<path fill="none" stroke="grey" stroke-width="2" d="M470.46,-647.84C458.18,-638.87 445.19,-626.68 438.5,-612 432.81,-599.53 432.23,-527.14 440.5,-504 444.08,-493.98 450.34,-484.35 456.9,-476.11"/>
<polygon fill="grey" stroke="grey" stroke-width="2" points="459.67,-478.26 463.48,-468.38 454.34,-473.73 459.67,-478.26"/>
</g>
<!-- 21 -->
<g id="node22" class="node">
<title>21</title>
<path fill="none" stroke="#56d89a" stroke-width="2" d="M539.5,-612C539.5,-612 459.5,-612 459.5,-612 453.5,-612 447.5,-606 447.5,-600 447.5,-600 447.5,-588 447.5,-588 447.5,-582 453.5,-576 459.5,-576 459.5,-576 539.5,-576 539.5,-576 545.5,-576 551.5,-582 551.5,-588 551.5,-588 551.5,-600 551.5,-600 551.5,-606 545.5,-612 539.5,-612"/>
<text text-anchor="middle" x="499.5" y="-591.5" font-family="sans" font-size="10.00">split_um_fastq_r2</text>
</g>
<!-- 17&#45;&gt;21 -->
<g id="edge31" class="edge">
<title>17&#45;&gt;21</title>
<path fill="none" stroke="grey" stroke-width="2" d="M499.5,-647.7C499.5,-639.98 499.5,-630.71 499.5,-622.11"/>
<polygon fill="grey" stroke="grey" stroke-width="2" points="503,-622.1 499.5,-612.1 496,-622.1 503,-622.1"/>
</g>
<!-- 18 -->
<g id="node19" class="node">
<title>18</title>
<path fill="none" stroke="#d8cb56" stroke-width="2" d="M535.5,-540C535.5,-540 461.5,-540 461.5,-540 455.5,-540 449.5,-534 449.5,-528 449.5,-528 449.5,-516 449.5,-516 449.5,-510 455.5,-504 461.5,-504 461.5,-504 535.5,-504 535.5,-504 541.5,-504 547.5,-510 547.5,-516 547.5,-516 547.5,-528 547.5,-528 547.5,-534 541.5,-540 535.5,-540"/>
<text text-anchor="middle" x="498.5" y="-519.5" font-family="sans" font-size="10.00">bismark_split_r2</text>
</g>
<!-- 18&#45;&gt;13 -->
<g id="edge22" class="edge">
<title>18&#45;&gt;13</title>
<path fill="none" stroke="grey" stroke-width="2" d="M494.3,-503.7C492.4,-495.9 490.12,-486.51 488.02,-477.83"/>
<polygon fill="grey" stroke="grey" stroke-width="2" points="491.42,-477 485.65,-468.1 484.61,-478.65 491.42,-477"/>
</g>
<!-- 19&#45;&gt;14 -->
<g id="edge23" class="edge">
<title>19&#45;&gt;14</title>
<path fill="none" stroke="grey" stroke-width="2" d="M317.14,-215.7C311.27,-207.47 304.13,-197.48 297.66,-188.42"/>
<polygon fill="grey" stroke="grey" stroke-width="2" points="300.38,-186.21 291.72,-180.1 294.68,-190.28 300.38,-186.21"/>
</g>
<!-- 20&#45;&gt;16 -->
<g id="edge25" class="edge">
<title>20&#45;&gt;16</title>
<path fill="none" stroke="grey" stroke-width="2" d="M210.25,-575.7C210.14,-567.98 210.01,-558.71 209.89,-550.11"/>
<polygon fill="grey" stroke="grey" stroke-width="2" points="213.39,-550.05 209.74,-540.1 206.39,-550.15 213.39,-550.05"/>
</g>
<!-- 21&#45;&gt;18 -->
<g id="edge27" class="edge">
<title>21&#45;&gt;18</title>
<path fill="none" stroke="grey" stroke-width="2" d="M499.25,-575.7C499.14,-567.98 499.01,-558.71 498.89,-550.11"/>
<polygon fill="grey" stroke="grey" stroke-width="2" points="502.39,-550.05 498.74,-540.1 495.39,-550.15 502.39,-550.05"/>
</g>
</g>
</svg>
